<?xml version="1.0" encoding="UTF-8" standalone="no"?>
<!DOCTYPE svg PUBLIC "-//W3C//DTD SVG 1.1//EN"
 "http://www.w3.org/Graphics/SVG/1.1/DTD/svg11.dtd">
<!-- Generated by graphviz version 12.2.1 (20241206.2353)
 -->
<!-- Title: crown Pages: 1 -->
<svg width="574pt" height="151pt"
 viewBox="0.00 0.00 574.25 151.00" xmlns="http://www.w3.org/2000/svg" xmlns:xlink="http://www.w3.org/1999/xlink">
<g id="graph0" class="graph" transform="scale(1 1) rotate(0) translate(4 147)">
<title>crown</title>
<polygon fill="white" stroke="none" points="-4,4 -4,-147 570.25,-147 570.25,4 -4,4"/>
<g id="clust1" class="cluster">
<title>cluster_A</title>
<path fill="#f3f7fb" stroke="#4477aa" d="M12,-8C12,-8 133.75,-8 133.75,-8 139.75,-8 145.75,-14 145.75,-20 145.75,-20 145.75,-123 145.75,-123 145.75,-129 139.75,-135 133.75,-135 133.75,-135 12,-135 12,-135 6,-135 0,-129 0,-123 0,-123 0,-20 0,-20 0,-14 6,-8 12,-8"/>
<text text-anchor="middle" x="72.88" y="-119.6" font-family="Helvetica,sans-Serif" font-weight="bold" font-size="12.00">Block A &#160;(dim 2, cheap)</text>
</g>
<g id="clust2" class="cluster">
<title>cluster_B</title>
<path fill="#f3f7fb" stroke="#4477aa" d="M177.75,-8C177.75,-8 300.25,-8 300.25,-8 306.25,-8 312.25,-14 312.25,-20 312.25,-20 312.25,-123 312.25,-123 312.25,-129 306.25,-135 300.25,-135 300.25,-135 177.75,-135 177.75,-135 171.75,-135 165.75,-129 165.75,-123 165.75,-123 165.75,-20 165.75,-20 165.75,-14 171.75,-8 177.75,-8"/>
<text text-anchor="middle" x="239" y="-119.6" font-family="Helvetica,sans-Serif" font-weight="bold" font-size="12.00">Block B &#160;(dim 2, cheap)</text>
</g>
<!-- ao2 -->
<g id="node1" class="node">
<title>ao2</title>
<path fill="#dde7f3" stroke="black" d="M99.88,-52C99.88,-52 44.88,-52 44.88,-52 38.88,-52 32.88,-46 32.88,-40 32.88,-40 32.88,-28 32.88,-28 32.88,-22 38.88,-16 44.88,-16 44.88,-16 99.88,-16 99.88,-16 105.88,-16 111.88,-22 111.88,-28 111.88,-28 111.88,-40 111.88,-40 111.88,-46 105.88,-52 99.88,-52"/>
<text text-anchor="middle" x="72.38" y="-29.55" font-family="Helvetica,sans-Serif" font-size="11.00">A out: chan 2</text>
</g>
<!-- bi3 -->
<g id="node4" class="node">
<title>bi3</title>
<path fill="#dde7f3" stroke="black" d="M263,-52C263,-52 214,-52 214,-52 208,-52 202,-46 202,-40 202,-40 202,-28 202,-28 202,-22 208,-16 214,-16 214,-16 263,-16 263,-16 269,-16 275,-22 275,-28 275,-28 275,-40 275,-40 275,-46 269,-52 263,-52"/>
<text text-anchor="middle" x="238.5" y="-29.55" font-family="Helvetica,sans-Serif" font-size="11.00">B in: chan 3</text>
</g>
<!-- ao2&#45;&gt;bi3 -->
<g id="edge1" class="edge">
<title>ao2&#45;&gt;bi3</title>
<path fill="none" stroke="#cc2222" stroke-width="2.2" d="M112.27,-34C135.15,-34 164.28,-34 188.68,-34"/>
<polygon fill="#cc2222" stroke="#cc2222" stroke-width="2.2" points="188.36,-37.5 198.36,-34 188.36,-30.5 188.36,-37.5"/>
</g>
<!-- ao3 -->
<g id="node2" class="node">
<title>ao3</title>
<path fill="#dde7f3" stroke="black" d="M99.88,-106C99.88,-106 44.88,-106 44.88,-106 38.88,-106 32.88,-100 32.88,-94 32.88,-94 32.88,-82 32.88,-82 32.88,-76 38.88,-70 44.88,-70 44.88,-70 99.88,-70 99.88,-70 105.88,-70 111.88,-76 111.88,-82 111.88,-82 111.88,-94 111.88,-94 111.88,-100 105.88,-106 99.88,-106"/>
<text text-anchor="middle" x="72.38" y="-83.55" font-family="Helvetica,sans-Serif" font-size="11.00">A out: chan 3</text>
</g>
<!-- bi2 -->
<g id="node3" class="node">
<title>bi2</title>
<path fill="#dde7f3" stroke="black" d="M263,-106C263,-106 214,-106 214,-106 208,-106 202,-100 202,-94 202,-94 202,-82 202,-82 202,-76 208,-70 214,-70 214,-70 263,-70 263,-70 269,-70 275,-76 275,-82 275,-82 275,-94 275,-94 275,-100 269,-106 263,-106"/>
<text text-anchor="middle" x="238.5" y="-83.55" font-family="Helvetica,sans-Serif" font-size="11.00">B in: chan 2</text>
</g>
<!-- ao3&#45;&gt;bi2 -->
<g id="edge2" class="edge">
<title>ao3&#45;&gt;bi2</title>
<path fill="none" stroke="#cc2222" stroke-width="2.2" d="M112.27,-88C135.15,-88 164.28,-88 188.68,-88"/>
<polygon fill="#cc2222" stroke="#cc2222" stroke-width="2.2" points="188.36,-91.5 198.36,-88 188.36,-84.5 188.36,-91.5"/>
</g>
<!-- cap -->
<g id="node5" class="node">
<title>cap</title>
<polygon fill="#fdecea" stroke="#cc2222" points="560.25,-68 340.25,-68 340.25,0 566.25,0 566.25,-62 560.25,-68"/>
<polyline fill="none" stroke="#cc2222" points="560.25,-68 560.25,-62"/>
<polyline fill="none" stroke="#cc2222" points="566.25,-62 560.25,-62"/>
<text text-anchor="start" x="348.25" y="-53.55" font-family="Helvetica,sans-Serif" font-size="11.00">The two wires CROSS.</text>
<text text-anchor="start" x="348.25" y="-41.55" font-family="Helvetica,sans-Serif" font-size="11.00">This embeds a &#39;crown&#39; &#45;&#45; an S3 obstruction</text>
<text text-anchor="start" x="348.25" y="-29.55" font-family="Helvetica,sans-Serif" font-size="11.00">that forces order dimension 3.</text>
<text text-anchor="start" x="348.25" y="-17.55" font-family="Helvetica,sans-Serif" font-size="11.00">The cheap 2&#45;number clock no longer works:</text>
<text text-anchor="start" x="348.25" y="-5.55" font-family="Helvetica,sans-Serif" font-size="11.00">a THIRD coordinate appears.</text>
</g>
<!-- bi3&#45;&gt;cap -->
</g>
</svg>
